<?xml version="1.0" encoding="UTF-8"?>
<svg width="54px" height="54px" viewBox="0 0 54 54" version="1.1" xmlns="http://www.w3.org/2000/svg" xmlns:xlink="http://www.w3.org/1999/xlink">
    <!-- Generator: Sketch 43.2 (39069) - http://www.bohemiancoding.com/sketch -->
    <title>icon--social__codepen</title>
    <desc>Created with Sketch.</desc>
    <defs></defs>
    <g id="Page-1" stroke="none" stroke-width="1" fill="none" fill-rule="evenodd">
        <g id="icon--social__codepen">
            <g>
                <path d="M47,20.7393828 L47,20.6641063 L47,20.5219175 L47,20.438277 L46.9498157,20.3128162 C46.9512106,20.2849535 46.9512106,20.2570384 46.9498157,20.2291757 L46.8912674,20.112079 L46.8410831,20.0284385 L46.7658066,19.9280699 L46.7072583,19.8527935 L46.6236178,19.7607889 L46.5567054,19.6938765 L46.4563368,19.610236 L46.3810603,19.5516877 L46.3810603,19.5516877 L27.8797819,7.29835454 C27.3063516,6.90054849 26.5462087,6.90054849 25.9727785,7.29835454 L7.62205297,19.5516877 L7.62205297,19.5516877 L7.54677652,19.610236 C7.51226078,19.6335659 7.48127604,19.6617338 7.45477198,19.6938765 L7.37949553,19.7607889 L7.29585503,19.8527935 L7.23730668,19.9280699 L7.16203023,20.0284385 L7.11184593,20.112079 L7.05329758,20.2291757 C7.0519027,20.2570384 7.0519027,20.2849535 7.05329758,20.3128162 L7.00311328,20.438277 L7.00311328,20.5219175 L7.00311328,20.6641063 C6.99919595,20.6890456 6.99919595,20.7144435 7.00311328,20.7393828 C6.99896224,20.814602 6.99896224,20.8899929 7.00311328,20.9652121 L7.00311328,33.1934531 C6.99896224,33.2686723 6.99896224,33.3440632 7.00311328,33.4192824 C6.99919595,33.4442217 6.99919595,33.4696196 7.00311328,33.4945589 L7.00311328,33.6367477 L7.00311328,33.7203882 L7.05329758,33.854213 L7.05329758,33.9294895 L7.11184593,34.0465862 L7.16203023,34.1302267 L7.23730668,34.2305953 L7.29585503,34.3058717 L7.37949553,34.3978763 L7.45477198,34.4647887 C7.48127604,34.4969314 7.51226078,34.5250993 7.54677652,34.5484292 L7.62205297,34.6069775 L7.62205297,34.6069775 L25.9727785,46.8352185 C26.5462087,47.2330246 27.3063516,47.2330246 27.8797819,46.8352185 L46.2305074,34.6069775 L46.2305074,34.6069775 L46.3057839,34.5484292 L46.4061525,34.4647887 L46.4730649,34.3978763 L46.5567054,34.3058717 L46.6152537,34.2305953 L46.6905302,34.1302267 L46.7407145,34.0465862 L46.7992628,33.9294895 L46.7992628,33.854213 L46.8494471,33.7203882 L46.8494471,33.6367477 L46.8494471,33.4945589 L46.8494471,33.4192824 C46.8535981,33.3440632 46.8535981,33.2686723 46.8494471,33.1934531 L46.8494471,20.9652121 C46.8535981,20.8899929 46.8535981,20.814602 46.8494471,20.7393828 L47,20.7393828 Z M28.6660026,11.9571303 L42.1823072,20.9652121 L36.1267351,25.0050482 L28.6409104,19.9866183 L28.6409104,11.9404022 L28.6660026,11.9571303 Z M25.220014,11.9571303 L25.220014,20.0033464 L17.7425534,25.0217763 L11.7037093,20.9819402 L25.220014,11.9738584 L25.220014,11.9571303 Z M10.2985489,24.1937354 L14.6227628,27.0793326 L10.2985489,29.9649298 L10.2985489,24.1937354 L10.2985489,24.1937354 Z M25.2032859,42.2015349 L11.6869812,33.1934531 L17.7258253,29.153617 L25.2032859,34.1720469 L25.2032859,42.218263 L25.2032859,42.2015349 Z M26.9262802,31.160989 L20.8288878,27.0793326 L26.9262802,22.9976762 L33.0320366,27.0793326 L26.9262802,31.160989 Z M28.6492745,42.2015349 L28.6492745,34.1553188 L36.1769194,29.1368889 L42.2073994,33.176725 L28.6492745,42.2015349 Z M43.5540114,29.9649298 L39.2381617,27.0793326 L43.5540114,24.1937354 L43.5540114,29.9649298 L43.5540114,29.9649298 Z" fill="#FFFFFF" fill-rule="nonzero"></path>
                <rect id="Rectangle" x="0" y="0" width="54" height="54"></rect>
            </g>
        </g>
    </g>
</svg>