<?xml version="1.0" encoding="UTF-8"?>
<svg width="54px" height="54px" viewBox="0 0 54 54" version="1.1" xmlns="http://www.w3.org/2000/svg" xmlns:xlink="http://www.w3.org/1999/xlink">
    <!-- Generator: Sketch 43.2 (39069) - http://www.bohemiancoding.com/sketch -->
    <title>icon--social__github</title>
    <desc>Created with Sketch.</desc>
    <defs></defs>
    <g id="Page-1" stroke="none" stroke-width="1" fill="none" fill-rule="evenodd">
        <g id="icon--social__github">
            <g>
                <path d="M27.0248036,7.00000547 C17.2002446,6.99279225 8.82398761,14.1195887 7.25771721,23.8184963 C5.69144681,33.5174039 11.398621,42.9185247 20.7260486,46.0041536 C21.7218992,46.1867262 22.0870444,45.5726183 22.0870444,45.041498 L22.0870444,41.6390085 C16.5434761,42.8506267 15.3733517,38.9585106 15.3733517,38.9585106 C14.4687874,36.6514568 13.1658829,36.0373489 13.1658829,36.0373489 C11.3567543,34.7925357 13.3069617,34.8174319 13.3069617,34.8174319 C14.5780805,34.9991191 15.6934725,35.7590565 16.3277085,36.8755232 C18.1036421,39.9377637 20.9916088,39.0497969 22.1368369,38.5352741 C22.2247778,37.5225056 22.6722199,36.5746349 23.3982477,35.8630751 C18.9750113,35.3651498 14.3277086,33.6473075 14.3277086,25.9875567 C14.2959638,24.0009461 15.0299527,22.0783112 16.377501,20.6182623 C15.7687248,18.8928449 15.8369348,17.0007591 16.5683724,15.3236566 C16.5683724,15.3236566 18.2281234,14.7925363 22.0455506,17.3734491 C25.3049563,16.4801632 28.7446509,16.4801632 32.0040565,17.3734491 C35.8048863,14.7925363 37.472936,15.3236566 37.472936,15.3236566 C38.209554,16.999132 38.2807658,18.8921809 37.6721061,20.6182623 C39.0196545,22.0783112 39.7536434,24.0009461 39.7218986,25.9875567 C39.7218986,33.663905 35.0662971,35.356851 30.5932682,35.8547763 C31.5685696,36.8180592 32.0824927,38.1542594 32.0040565,39.522826 L32.0040565,45.008303 C32.0040565,45.5394233 32.360903,46.1618299 33.3733511,45.9709585 C42.6568078,42.8458437 48.3128173,33.4591449 46.7378705,23.7912365 C45.1629238,14.1233281 36.8201402,7.01709709 27.0248036,7.00000547" fill="#FFFFFF" fill-rule="nonzero"></path>
                <rect id="Rectangle" x="0" y="0" width="54" height="54"></rect>
            </g>
        </g>
    </g>
</svg>