<?xml version="1.0" encoding="UTF-8"?>
<svg width="54px" height="54px" viewBox="0 0 54 54" version="1.1" xmlns="http://www.w3.org/2000/svg" xmlns:xlink="http://www.w3.org/1999/xlink">
    <!-- Generator: Sketch 43.2 (39069) - http://www.bohemiancoding.com/sketch -->
    <title>icon--social__linkedin</title>
    <desc>Created with Sketch.</desc>
    <defs></defs>
    <g id="Page-1" stroke="none" stroke-width="1" fill="none" fill-rule="evenodd">
        <g id="icon--social__linkedin">
            <g>
                <path d="M47,45.3636364 L38.1636364,45.3636364 L38.1636364,32.5818182 C38.1636364,29.2363636 36.7727273,26.9545455 33.7363636,26.9545455 C31.8291736,26.9538743 30.1331532,28.1674061 29.5181818,29.9727273 C29.3321956,30.6313278 29.2675072,31.3182569 29.3272727,32 L29.3272727,45.3636364 L20.5636364,45.3636364 C20.5636364,45.3636364 20.6818182,22.7181818 20.5636364,20.6636364 L29.3272727,20.6636364 L29.3272727,24.5363636 C29.8454545,22.8454545 32.6363636,20.4272727 37.1090909,20.4272727 C42.6454545,20.4272727 47,23.9727273 47,31.6272727 L47,45.3636364 L47,45.3636364 Z M11.7090909,17.5727273 L11.6545455,17.5727273 C8.81818182,17.5727273 7,15.6818182 7,13.2909091 C7,10.9 8.88181818,9 11.7636364,9 C14.6454545,9 16.4090909,10.8181818 16.4636364,13.2818182 C16.5181818,15.7454545 14.6454545,17.5727273 11.7090909,17.5727273 Z M8.00909091,20.6636364 L15.8090909,20.6636364 L15.8090909,45.3636364 L8.00909091,45.3636364 L8.00909091,20.6636364 L8.00909091,20.6636364 Z" fill="#FFFFFF" fill-rule="nonzero"></path>
                <rect id="Rectangle" x="0" y="0" width="54" height="54"></rect>
            </g>
        </g>
    </g>
</svg>