<?xml version="1.0" encoding="UTF-8"?>
<svg width="54px" height="54px" viewBox="0 0 54 54" version="1.1" xmlns="http://www.w3.org/2000/svg" xmlns:xlink="http://www.w3.org/1999/xlink">
    <!-- Generator: Sketch 43.2 (39069) - http://www.bohemiancoding.com/sketch -->
    <title>icon--social__tumblr</title>
    <desc>Created with Sketch.</desc>
    <defs></defs>
    <g id="Page-1" stroke="none" stroke-width="1" fill="none" fill-rule="evenodd">
        <g id="icon--social__tumblr">
            <g>
                <path d="M37.0748148,39.66 C36.0507774,40.0906336 34.9565869,40.3302584 33.8462963,40.367037 C30.6433333,40.4522222 30.0214815,38.067037 29.9959259,36.3377778 L29.9959259,23.6111111 L38.0288889,23.6111111 L38.0288889,17.4181481 L30.0214815,17.4181481 L30.0214815,7 L24.1607407,7 C24.0017046,7.01665402 23.8786576,7.14693904 23.8711111,7.30666667 C23.5303704,10.4925926 22.0737037,16.0892593 16,18.3211111 L16,23.6111111 L20.0462963,23.6111111 L20.0462963,36.9681481 C20.0462963,41.5425926 23.3514815,48.0422222 32.0744444,47.8888889 C35.0133333,47.8377778 38.2759259,46.577037 39,45.4866667 L37.0748148,39.66" fill="#FFFFFF" fill-rule="nonzero"></path>
                <rect id="Rectangle" x="0" y="0" width="54" height="54"></rect>
            </g>
        </g>
    </g>
</svg>