<?xml version="1.0" encoding="UTF-8"?>
<svg width="54px" height="54px" viewBox="0 0 54 54" version="1.1" xmlns="http://www.w3.org/2000/svg" xmlns:xlink="http://www.w3.org/1999/xlink">
    <!-- Generator: Sketch 43.2 (39069) - http://www.bohemiancoding.com/sketch -->
    <title>icon--social__instagram</title>
    <desc>Created with Sketch.</desc>
    <defs></defs>
    <g id="Page-1" stroke="none" stroke-width="1" fill="none" fill-rule="evenodd">
        <g id="icon--social__instagram">
            <g>
                <path d="M20.3058927,26.946339 C20.3058927,23.2691866 23.2888357,20.2882656 26.9684824,20.2882656 C30.6481291,20.2882656 33.6310721,23.2691866 33.6310721,26.946339 C33.6310721,30.6234914 30.6481291,33.6044124 26.9684824,33.6044124 C25.2052939,33.6154943 23.5105123,32.9233003 22.2598228,31.6812701 C21.0091333,30.4392399 20.3058579,28.7499801 20.3058927,26.987952 M16.7247508,26.987952 C16.7293495,32.6221023 21.3027439,37.1861884 26.9407171,37.1831253 C32.5786902,37.1800623 37.147116,32.6110095 37.1455844,26.9768574 C37.1440527,21.3427054 32.5731435,16.7761338 26.9351695,16.7761319 C21.3072028,16.7715239 16.7385317,21.3222022 16.7247508,26.946339 M35.1634677,16.3683249 C35.1600966,17.3351671 35.7403089,18.2086825 36.6331948,18.5810136 C37.5260807,18.9533447 38.5555131,18.751047 39.2408346,18.0685764 C39.926156,17.3861057 40.1321828,16.3580835 39.7627179,15.4645087 C39.3932531,14.5709339 38.5211757,13.9880695 37.5536718,13.9880637 C36.2368441,13.9880557 35.168056,15.0523978 35.1634677,16.3683249 M18.8984207,43.092167 C17.6413605,43.0867904 16.394159,42.8701552 15.2090116,42.4513274 C13.4701157,41.7926746 12.0947624,40.4243083 11.427992,38.689516 C10.2537106,35.6684152 10.6451377,21.3036218 10.7450766,18.9816187 C10.8450154,16.6596156 11.3197249,14.5872903 12.9187464,12.9810301 C14.9091951,10.9919306 17.4742921,9.99321963 34.9719183,10.8254788 C37.2538552,10.9336725 39.3442427,11.391415 40.9515925,12.9976752 C42.9670259,14.9867747 43.9331014,17.5501329 43.1252624,34.9609949 C43.1151092,36.2204152 42.8839682,37.468294 42.4423469,38.647903 C40.6434477,43.2835866 36.5043139,43.8994584 18.8984207,43.092167 M18.7401842,7.24676435 C15.4838435,7.396571 12.6605711,8.18721722 10.4119471,10.4509622 C8.16332305,12.7147071 7.31384287,15.5610335 7.15560636,18.7818765 C7.07232399,20.8125889 6.53931682,35.9597059 8.08836892,39.9545499 C9.11324896,42.6371953 11.2336698,44.7561788 13.9181349,45.7803641 C15.4643272,46.3582435 17.0979598,46.6678603 18.7485124,46.6958492 C36.4543445,47.5281084 43.0169953,47.0620433 45.7902982,39.9795177 C46.3712887,38.4406126 46.6839626,36.8135583 46.7147326,35.1690597 C47.5475563,17.4252941 46.5814808,13.5719341 43.4917048,10.4925751 C41.0348749,8.01244279 38.1616331,6.34792444 18.7401842,7.24676435" fill="#FFFFFF"></path>
                <rect id="Rectangle" x="0" y="0" width="54" height="54"></rect>
            </g>
        </g>
    </g>
</svg>