<?xml version="1.0" encoding="UTF-8"?>
<svg width="54px" height="54px" viewBox="0 0 54 54" version="1.1" xmlns="http://www.w3.org/2000/svg" xmlns:xlink="http://www.w3.org/1999/xlink">
    <!-- Generator: Sketch 43.2 (39069) - http://www.bohemiancoding.com/sketch -->
    <title>icon--social__twitter</title>
    <desc>Created with Sketch.</desc>
    <defs></defs>
    <g id="Page-1" stroke="none" stroke-width="1" fill="none" fill-rule="evenodd">
        <g id="icon--social__twitter">
            <g>
                <path d="M47,13.9500027 C45.5073173,14.6276205 43.9193195,15.0716978 42.2916667,15.2666694 C44.0163989,14.2031425 45.2980696,12.5514744 45.9,10.6166694 C44.2937038,11.5966872 42.5281216,12.2876899 40.6833333,12.658336 C39.152383,10.9641264 36.9751184,9.99813555 34.6916667,10.0000027 C30.1088124,10.0731027 26.4452493,13.8334671 26.4916667,18.4166694 C26.4886265,19.0613695 26.5585151,19.7043451 26.7,20.333336 C20.0570023,19.9728487 13.8919419,16.7658025 9.78333333,11.533336 C9.05003859,12.8266534 8.66525283,14.288265 8.66666667,15.7750027 C8.6545004,18.567486 10.020065,21.186377 12.3166667,22.7750027 C11.011084,22.7307866 9.73571917,22.3704817 8.6,21.7250027 L8.6,21.8250027 C8.54728224,25.7944598 11.3019722,29.2500266 15.1833333,30.083336 C14.4803614,30.2775799 13.7543146,30.3756944 13.025,30.3750027 C12.5046491,30.3762804 11.9854499,30.3260353 11.475,30.2250027 C12.5098158,33.6160889 15.5974229,35.9653552 19.1416667,36.058336 C16.2575395,38.3920966 12.6600711,39.665771 8.95,39.6666694 C8.29845663,39.668122 7.64737296,39.6319507 7,39.558336 C10.7346884,42.0208656 15.1098616,43.3334176 19.5833333,43.333336 C34.675,43.333336 42.9166667,30.5166694 42.9166667,19.3916694 L42.9166667,18.3000027 C44.5242722,17.102842 45.9067961,15.6300309 47,13.9500027" fill="#FFFFFF" fill-rule="nonzero"></path>
                <rect id="Rectangle" x="0" y="0" width="54" height="54"></rect>
            </g>
        </g>
    </g>
</svg>