<?xml version="1.0" encoding="UTF-8" standalone="no"?>
<svg width="164px" height="654px" viewBox="0 0 164 654" version="1.1" xmlns="http://www.w3.org/2000/svg" xmlns:xlink="http://www.w3.org/1999/xlink" xmlns:sketch="http://www.bohemiancoding.com/sketch/ns">
    <!-- Generator: Sketch 3.4.4 (17249) - http://www.bohemiancoding.com/sketch -->
    <title>sprite-social</title>
    <desc>Created with Sketch.</desc>
    <defs></defs>
    <g id="Page-1" stroke="none" stroke-width="1" fill="none" fill-rule="evenodd" sketch:type="MSPage">
        <g id="sprite-social" sketch:type="MSArtboardGroup">
            <g id="white" sketch:type="MSLayerGroup" transform="translate(3.000000, 0.000000)" fill="#FFFFFF">
                <path d="M48,104.735283 C46.2363092,105.538462 44.3373833,106.081618 42.3454834,106.324305 C44.3796443,105.076201 45.9404825,103.097147 46.6758232,100.739617 C44.7712625,101.895269 42.6666667,102.736006 40.4183835,103.18671 C38.6265188,101.224991 36.0655045,100 33.2312027,100 C27.796443,100 23.3872161,104.521488 23.3872161,110.097508 C23.3872161,110.88913 23.471738,111.657638 23.6407818,112.397255 C15.4562423,111.975442 8.20144392,107.959552 3.34143335,101.843265 C2.49339672,103.339834 2.00880437,105.076201 2.00880437,106.925244 C2.00880437,110.426869 3.74713858,113.518238 6.38985737,115.329722 C4.77830604,115.280607 3.25691143,114.821235 1.92709984,114.070061 L1.92709984,114.194294 C1.92709984,119.08848 5.32206374,123.17082 9.82989963,124.095341 C9.00440218,124.33225 8.13382638,124.450704 7.2350766,124.450704 C6.60116218,124.450704 5.98133474,124.390033 5.38122909,124.271578 C6.63497095,128.28169 10.2694136,131.2026 14.5800317,131.280607 C11.2104244,133.99061 6.96178905,135.605634 2.34970946,135.605634 C1.55520338,135.605634 0.769149498,135.559408 0,135.466956 C4.35851382,138.327194 9.5368903,140 15.0956154,140 C33.2114809,140 43.1146329,124.615385 43.1146329,111.270495 C43.1146329,110.831347 43.1061807,110.392199 43.0892763,109.961719 C45.0135587,108.537378 46.6842754,106.760563 48,104.735283" id="Twitter" sketch:type="MSShapeGroup"></path>
                <path d="M33.7406584,338.340738 C32.8671091,338.766425 31.1965085,339.136797 29.9507666,339.168664 C26.1897087,339.271478 25.4597404,336.469336 25.4294354,334.438001 L25.4294354,319.495346 L34.8637092,319.495346 L34.8637092,312.227393 L25.4620942,312.227393 L25.4620942,300 L18.5822681,300 C18.4689921,300 18.271274,300.101311 18.2433228,300.358347 C17.8408251,304.100549 16.127268,310.668643 9,313.294919 L9,319.495046 L13.7546504,319.495046 L13.7546504,335.177843 C13.7546504,340.54794 17.6313381,348.176945 27.8653111,347.99687 C31.318317,347.936444 35.153225,346.459765 36,345.184807 L33.7406584,338.340738" id="Tumblr" sketch:type="MSShapeGroup"></path>
                <path d="M2.00047142,537.714286 C2.00047142,534.243 4.81486984,531.428571 8.28611836,531.428571 C11.7573669,531.428571 14.5717653,534.243 14.5717653,537.714286 C14.5717653,541.185571 11.7573669,544 8.28611836,544 C4.81486984,544 2.00047142,541.185571 2.00047142,537.714286 Z M46,544 L37.6196612,544 C37.6196612,524.358714 21.6415467,508.380429 2.00047142,508.380429 L2.00047142,500 C26.2614972,500 46,519.738714 46,544 Z M31.3335429,544 L22.9532041,544 C22.9532041,532.446857 13.5530191,523.048143 2,523.048143 L2,514.666143 C18.174541,514.666143 31.3335429,527.825286 31.3335429,544 Z" id="RSS" sketch:type="MSShapeGroup"></path>
                <path d="M46,240 L36.2753998,240 L36.2753998,225.9384 C36.2753998,222.257796 34.7542333,219.74515 31.4092192,219.74515 C28.8506585,219.74515 27.4277987,221.440738 26.7655221,223.074854 C26.5171684,223.661395 26.5559737,224.478453 26.5559737,225.295511 L26.5559737,240 L16.9219191,240 C16.9219191,240 17.046096,215.091247 16.9219191,212.827047 L26.5559737,212.827047 L26.5559737,217.091631 C27.1251176,215.226996 30.2036689,212.565794 35.1164158,212.565794 C41.2114299,212.565794 46,216.474355 46,224.890824 L46,240 L46,240 Z M7.17920978,209.428187 L7.11712135,209.428187 C4.01269991,209.428187 2,207.350964 2,204.717936 C2,202.033681 4.07220132,200 7.23871119,200 C10.4026341,200 12.3480715,202.028559 12.4101599,204.710252 C12.4101599,207.34328 10.4026341,209.428187 7.17920978,209.428187 L7.17920978,209.428187 L7.17920978,209.428187 Z M3.10983067,212.827047 L11.6857949,212.827047 L11.6857949,240 L3.10983067,240 L3.10983067,212.827047 L3.10983067,212.827047 Z" id="LinkedIn" sketch:type="MSShapeGroup"></path>
                <path d="M23.9985,400 C10.746,400 0,410.787092 0,424.096644 C0,434.740671 6.876,443.77183 16.4145,446.958412 C17.6145,447.179786 18.0525,446.435849 18.0525,445.797328 C18.0525,445.225068 18.0315,443.710086 18.0195,441.699648 C11.343,443.155898 9.9345,438.469394 9.9345,438.469394 C8.844,435.686405 7.2705,434.94548 7.2705,434.94548 C5.091,433.450075 7.4355,433.480194 7.4355,433.480194 C9.843,433.650366 11.1105,435.963499 11.1105,435.963499 C13.2525,439.645538 16.728,438.58234 18.096,437.964902 C18.3135,436.407754 18.9345,435.346062 19.62,434.743683 C14.2905,434.135281 8.688,432.069123 8.688,422.836167 C8.688,420.205279 9.6225,418.054788 11.1585,416.369634 C10.911,415.759726 10.0875,413.311058 11.3925,409.993458 C11.3925,409.993458 13.4085,409.345902 17.9925,412.46321 C19.908,411.928599 21.96,411.662047 24.0015,411.651505 C26.04,411.662047 28.0935,411.928599 30.0105,412.46321 C34.5915,409.345902 36.603,409.993458 36.603,409.993458 C37.9125,413.311058 37.089,415.759726 36.8415,416.369634 C38.3805,418.054788 39.309,420.205279 39.309,422.836167 C39.309,432.091712 33.6975,434.129257 28.3515,434.725612 C29.2125,435.469549 29.9805,436.939353 29.9805,439.18773 C29.9805,442.408949 29.9505,445.006706 29.9505,445.797328 C29.9505,446.441873 30.3825,447.191834 31.6005,446.9554 C41.13,443.762794 48,434.737659 48,424.096644 C48,410.787092 37.254,400 23.9985,400" id="Github" sketch:type="MSShapeGroup"></path>
                <path d="M42,43.5 L6,43.5 C5.172,43.5 4.5,42.828 4.5,42 L4.5,19.5 L10.5,19.5 C9.7185,20.625 9.4545,22.7235 9.4545,24.0555 C9.4545,32.088 16.005,38.6235 24.0555,38.6235 C32.1075,38.6235 38.658,32.088 38.658,24.0555 C38.658,22.7235 38.469,20.6565 37.5,19.5 L43.5,19.5 L43.5,42 C43.5,42.828 42.828,43.5 42,43.5 M24.0555,14.847 C29.154,14.847 33.2865,18.9705 33.2865,24.0555 C33.2865,29.142 29.154,33.2655 24.0555,33.2655 C18.9585,33.2655 14.826,29.142 14.826,24.0555 C14.826,18.9705 18.9585,14.847 24.0555,14.847 M36,6 L40.5,6 C41.328,6 42,6.672 42,7.5 L42,12 C42,12.828 41.328,13.5 40.5,13.5 L36,13.5 C35.172,13.5 34.5,12.828 34.5,12 L34.5,7.5 C34.5,6.672 35.172,6 36,6 M42.294,0 L5.706,0 C2.5545,0 0,2.5485 0,5.6925 L0,42.3075 C0,45.4515 2.5545,48 5.706,48 L42.294,48 C45.4455,48 48,45.4515 48,42.3075 L48,5.6925 C48,2.5485 45.4455,0 42.294,0" id="Instagram" sketch:type="MSShapeGroup"></path>
                <path d="M47.982,616.419 C47.9775,616.3875 47.97,616.359 47.9655,616.329 C47.955,616.2705 47.9445,616.212 47.9295,616.1565 C47.9205,616.122 47.907,616.089 47.8965,616.056 C47.88,616.005 47.8635,615.9555 47.844,615.906 C47.8305,615.8715 47.814,615.837 47.7975,615.8055 C47.7765,615.7575 47.754,615.7125 47.727,615.669 C47.709,615.636 47.688,615.6045 47.6685,615.573 C47.6415,615.5295 47.613,615.4875 47.5815,615.447 C47.559,615.417 47.535,615.387 47.511,615.3585 C47.478,615.3195 47.4435,615.282 47.4075,615.246 C47.3805,615.219 47.355,615.1905 47.3265,615.1665 C47.2875,615.132 47.2485,615.099 47.2095,615.0675 C47.178,615.0435 47.148,615.0195 47.1165,614.997 C47.1045,614.9895 47.094,614.979 47.082,614.9715 L25.1445,600.3465 C24.4515,599.8845 23.55,599.8845 22.8555,600.3465 L0.9195,614.9715 C0.9075,614.979 0.897,614.9895 0.885,614.997 C0.852,615.0195 0.822,615.0435 0.792,615.0675 C0.7515,615.099 0.7125,615.132 0.675,615.1665 C0.6465,615.1905 0.6195,615.219 0.5925,615.246 C0.5565,615.282 0.522,615.3195 0.4905,615.3585 C0.465,615.387 0.441,615.417 0.4185,615.447 C0.3885,615.4875 0.36,615.5295 0.333,615.573 C0.312,615.6045 0.2925,615.636 0.273,615.669 C0.2475,615.7125 0.225,615.7575 0.2025,615.8055 C0.1875,615.837 0.171,615.8715 0.1575,615.906 C0.1365,615.9555 0.12,616.005 0.1035,616.056 C0.093,616.089 0.081,616.122 0.072,616.1565 C0.057,616.212 0.0465,616.2705 0.036,616.329 C0.03,616.359 0.0225,616.3875 0.0195,616.419 C0.0075,616.506 0,616.596 0,616.6875 L0,631.3125 C0,631.4025 0.0075,631.4925 0.0195,631.5825 C0.0225,631.611 0.03,631.641 0.036,631.671 C0.0465,631.7295 0.057,631.7865 0.072,631.8435 C0.081,631.878 0.093,631.911 0.1035,631.944 C0.12,631.9935 0.1365,632.0445 0.1575,632.0955 C0.171,632.1285 0.1875,632.1615 0.2025,632.1945 C0.225,632.241 0.2475,632.286 0.273,632.3325 C0.2925,632.364 0.312,632.3955 0.333,632.427 C0.36,632.4705 0.3885,632.511 0.4185,632.5515 C0.441,632.583 0.465,632.613 0.4905,632.6415 C0.522,632.679 0.5565,632.718 0.5925,632.7525 C0.6195,632.781 0.6465,632.808 0.675,632.8335 C0.7125,632.868 0.7515,632.901 0.792,632.9325 C0.822,632.9565 0.852,632.9805 0.885,633.003 C0.897,633.0105 0.9075,633.021 0.9195,633.0285 L22.8555,647.6535 C23.202,647.8845 23.601,648 24,648 C24.399,648 24.798,647.8845 25.1445,647.6535 L47.082,633.0285 C47.094,633.021 47.1045,633.0105 47.1165,633.003 C47.148,632.9805 47.178,632.9565 47.2095,632.9325 C47.2485,632.901 47.2875,632.868 47.3265,632.8335 C47.355,632.808 47.3805,632.781 47.4075,632.7525 C47.4435,632.718 47.478,632.679 47.511,632.6415 C47.535,632.613 47.559,632.583 47.5815,632.5515 C47.613,632.511 47.6415,632.4705 47.6685,632.427 C47.688,632.3955 47.709,632.364 47.727,632.3325 C47.754,632.286 47.7765,632.241 47.7975,632.1945 C47.814,632.1615 47.8305,632.1285 47.844,632.0955 C47.8635,632.0445 47.88,631.9935 47.8965,631.944 C47.907,631.911 47.9205,631.878 47.9295,631.8435 C47.9445,631.7865 47.955,631.7295 47.9655,631.671 C47.97,631.641 47.9775,631.611 47.982,631.5825 C47.994,631.4925 48,631.4025 48,631.3125 L48,616.6875 C48,616.596 47.994,616.506 47.982,616.419 L47.982,616.419 L47.982,616.419 Z M26.0625,605.9175 L42.2235,616.6905 L35.0055,621.519 L26.0625,615.537 L26.0625,605.9175 L26.0625,605.9175 Z M21.9375,605.9175 L21.9375,615.537 L12.996,621.519 L5.7765,616.6905 L21.9375,605.9175 L21.9375,605.9175 Z M4.125,620.5485 L9.2865,624 L4.125,627.4515 L4.125,620.5485 L4.125,620.5485 Z M21.9375,642.0825 L5.7765,631.3095 L12.996,626.4825 L21.9375,632.463 L21.9375,642.0825 L21.9375,642.0825 Z M24,628.8795 L16.7055,624 L24,619.1205 L31.296,624 L24,628.8795 L24,628.8795 Z M26.0625,642.0825 L26.0625,632.463 L35.0055,626.4825 L42.2235,631.3095 L26.0625,642.0825 L26.0625,642.0825 Z M43.875,627.4515 L38.715,624 L43.875,620.5485 L43.875,627.4515 L43.875,627.4515 Z" id="Codepen" sketch:type="MSShapeGroup"></path>
            </g>
            <g id="black" sketch:type="MSLayerGroup" transform="translate(103.000000, 0.000000)" fill="#000000">
                <path d="M48,104.735283 C46.2363092,105.538462 44.3373833,106.081618 42.3454834,106.324305 C44.3796443,105.076201 45.9404825,103.097147 46.6758232,100.739617 C44.7712625,101.895269 42.6666667,102.736006 40.4183835,103.18671 C38.6265188,101.224991 36.0655045,100 33.2312027,100 C27.796443,100 23.3872161,104.521488 23.3872161,110.097508 C23.3872161,110.88913 23.471738,111.657638 23.6407818,112.397255 C15.4562423,111.975442 8.20144392,107.959552 3.34143335,101.843265 C2.49339672,103.339834 2.00880437,105.076201 2.00880437,106.925244 C2.00880437,110.426869 3.74713858,113.518238 6.38985737,115.329722 C4.77830604,115.280607 3.25691143,114.821235 1.92709984,114.070061 L1.92709984,114.194294 C1.92709984,119.08848 5.32206374,123.17082 9.82989963,124.095341 C9.00440218,124.33225 8.13382638,124.450704 7.2350766,124.450704 C6.60116218,124.450704 5.98133474,124.390033 5.38122909,124.271578 C6.63497095,128.28169 10.2694136,131.2026 14.5800317,131.280607 C11.2104244,133.99061 6.96178905,135.605634 2.34970946,135.605634 C1.55520338,135.605634 0.769149498,135.559408 0,135.466956 C4.35851382,138.327194 9.5368903,140 15.0956154,140 C33.2114809,140 43.1146329,124.615385 43.1146329,111.270495 C43.1146329,110.831347 43.1061807,110.392199 43.0892763,109.961719 C45.0135587,108.537378 46.6842754,106.760563 48,104.735283" id="Twitter" sketch:type="MSShapeGroup"></path>
                <path d="M33.7406584,338.340738 C32.8671091,338.766425 31.1965085,339.136797 29.9507666,339.168664 C26.1897087,339.271478 25.4597404,336.469336 25.4294354,334.438001 L25.4294354,319.495346 L34.8637092,319.495346 L34.8637092,312.227393 L25.4620942,312.227393 L25.4620942,300 L18.5822681,300 C18.4689921,300 18.271274,300.101311 18.2433228,300.358347 C17.8408251,304.100549 16.127268,310.668643 9,313.294919 L9,319.495046 L13.7546504,319.495046 L13.7546504,335.177843 C13.7546504,340.54794 17.6313381,348.176945 27.8653111,347.99687 C31.318317,347.936444 35.153225,346.459765 36,345.184807 L33.7406584,338.340738" id="Tumblr" sketch:type="MSShapeGroup"></path>
                <path d="M2.00047142,537.714286 C2.00047142,534.243 4.81486984,531.428571 8.28611836,531.428571 C11.7573669,531.428571 14.5717653,534.243 14.5717653,537.714286 C14.5717653,541.185571 11.7573669,544 8.28611836,544 C4.81486984,544 2.00047142,541.185571 2.00047142,537.714286 Z M46,544 L37.6196612,544 C37.6196612,524.358714 21.6415467,508.380429 2.00047142,508.380429 L2.00047142,500 C26.2614972,500 46,519.738714 46,544 Z M31.3335429,544 L22.9532041,544 C22.9532041,532.446857 13.5530191,523.048143 2,523.048143 L2,514.666143 C18.174541,514.666143 31.3335429,527.825286 31.3335429,544 Z" id="RSS" sketch:type="MSShapeGroup"></path>
                <path d="M46,240 L36.2753998,240 L36.2753998,225.9384 C36.2753998,222.257796 34.7542333,219.74515 31.4092192,219.74515 C28.8506585,219.74515 27.4277987,221.440738 26.7655221,223.074854 C26.5171684,223.661395 26.5559737,224.478453 26.5559737,225.295511 L26.5559737,240 L16.9219191,240 C16.9219191,240 17.046096,215.091247 16.9219191,212.827047 L26.5559737,212.827047 L26.5559737,217.091631 C27.1251176,215.226996 30.2036689,212.565794 35.1164158,212.565794 C41.2114299,212.565794 46,216.474355 46,224.890824 L46,240 L46,240 Z M7.17920978,209.428187 L7.11712135,209.428187 C4.01269991,209.428187 2,207.350964 2,204.717936 C2,202.033681 4.07220132,200 7.23871119,200 C10.4026341,200 12.3480715,202.028559 12.4101599,204.710252 C12.4101599,207.34328 10.4026341,209.428187 7.17920978,209.428187 L7.17920978,209.428187 L7.17920978,209.428187 Z M3.10983067,212.827047 L11.6857949,212.827047 L11.6857949,240 L3.10983067,240 L3.10983067,212.827047 L3.10983067,212.827047 Z" id="LinkedIn" sketch:type="MSShapeGroup"></path>
                <path d="M23.9985,400 C10.746,400 0,410.787092 0,424.096644 C0,434.740671 6.876,443.77183 16.4145,446.958412 C17.6145,447.179786 18.0525,446.435849 18.0525,445.797328 C18.0525,445.225068 18.0315,443.710086 18.0195,441.699648 C11.343,443.155898 9.9345,438.469394 9.9345,438.469394 C8.844,435.686405 7.2705,434.94548 7.2705,434.94548 C5.091,433.450075 7.4355,433.480194 7.4355,433.480194 C9.843,433.650366 11.1105,435.963499 11.1105,435.963499 C13.2525,439.645538 16.728,438.58234 18.096,437.964902 C18.3135,436.407754 18.9345,435.346062 19.62,434.743683 C14.2905,434.135281 8.688,432.069123 8.688,422.836167 C8.688,420.205279 9.6225,418.054788 11.1585,416.369634 C10.911,415.759726 10.0875,413.311058 11.3925,409.993458 C11.3925,409.993458 13.4085,409.345902 17.9925,412.46321 C19.908,411.928599 21.96,411.662047 24.0015,411.651505 C26.04,411.662047 28.0935,411.928599 30.0105,412.46321 C34.5915,409.345902 36.603,409.993458 36.603,409.993458 C37.9125,413.311058 37.089,415.759726 36.8415,416.369634 C38.3805,418.054788 39.309,420.205279 39.309,422.836167 C39.309,432.091712 33.6975,434.129257 28.3515,434.725612 C29.2125,435.469549 29.9805,436.939353 29.9805,439.18773 C29.9805,442.408949 29.9505,445.006706 29.9505,445.797328 C29.9505,446.441873 30.3825,447.191834 31.6005,446.9554 C41.13,443.762794 48,434.737659 48,424.096644 C48,410.787092 37.254,400 23.9985,400" id="Github" sketch:type="MSShapeGroup"></path>
                <path d="M42,43.5 L6,43.5 C5.172,43.5 4.5,42.828 4.5,42 L4.5,19.5 L10.5,19.5 C9.7185,20.625 9.4545,22.7235 9.4545,24.0555 C9.4545,32.088 16.005,38.6235 24.0555,38.6235 C32.1075,38.6235 38.658,32.088 38.658,24.0555 C38.658,22.7235 38.469,20.6565 37.5,19.5 L43.5,19.5 L43.5,42 C43.5,42.828 42.828,43.5 42,43.5 M24.0555,14.847 C29.154,14.847 33.2865,18.9705 33.2865,24.0555 C33.2865,29.142 29.154,33.2655 24.0555,33.2655 C18.9585,33.2655 14.826,29.142 14.826,24.0555 C14.826,18.9705 18.9585,14.847 24.0555,14.847 M36,6 L40.5,6 C41.328,6 42,6.672 42,7.5 L42,12 C42,12.828 41.328,13.5 40.5,13.5 L36,13.5 C35.172,13.5 34.5,12.828 34.5,12 L34.5,7.5 C34.5,6.672 35.172,6 36,6 M42.294,0 L5.706,0 C2.5545,0 0,2.5485 0,5.6925 L0,42.3075 C0,45.4515 2.5545,48 5.706,48 L42.294,48 C45.4455,48 48,45.4515 48,42.3075 L48,5.6925 C48,2.5485 45.4455,0 42.294,0" id="Instagram" sketch:type="MSShapeGroup"></path>
                <path d="M47.982,616.419 C47.9775,616.3875 47.97,616.359 47.9655,616.329 C47.955,616.2705 47.9445,616.212 47.9295,616.1565 C47.9205,616.122 47.907,616.089 47.8965,616.056 C47.88,616.005 47.8635,615.9555 47.844,615.906 C47.8305,615.8715 47.814,615.837 47.7975,615.8055 C47.7765,615.7575 47.754,615.7125 47.727,615.669 C47.709,615.636 47.688,615.6045 47.6685,615.573 C47.6415,615.5295 47.613,615.4875 47.5815,615.447 C47.559,615.417 47.535,615.387 47.511,615.3585 C47.478,615.3195 47.4435,615.282 47.4075,615.246 C47.3805,615.219 47.355,615.1905 47.3265,615.1665 C47.2875,615.132 47.2485,615.099 47.2095,615.0675 C47.178,615.0435 47.148,615.0195 47.1165,614.997 C47.1045,614.9895 47.094,614.979 47.082,614.9715 L25.1445,600.3465 C24.4515,599.8845 23.55,599.8845 22.8555,600.3465 L0.9195,614.9715 C0.9075,614.979 0.897,614.9895 0.885,614.997 C0.852,615.0195 0.822,615.0435 0.792,615.0675 C0.7515,615.099 0.7125,615.132 0.675,615.1665 C0.6465,615.1905 0.6195,615.219 0.5925,615.246 C0.5565,615.282 0.522,615.3195 0.4905,615.3585 C0.465,615.387 0.441,615.417 0.4185,615.447 C0.3885,615.4875 0.36,615.5295 0.333,615.573 C0.312,615.6045 0.2925,615.636 0.273,615.669 C0.2475,615.7125 0.225,615.7575 0.2025,615.8055 C0.1875,615.837 0.171,615.8715 0.1575,615.906 C0.1365,615.9555 0.12,616.005 0.1035,616.056 C0.093,616.089 0.081,616.122 0.072,616.1565 C0.057,616.212 0.0465,616.2705 0.036,616.329 C0.03,616.359 0.0225,616.3875 0.0195,616.419 C0.0075,616.506 0,616.596 0,616.6875 L0,631.3125 C0,631.4025 0.0075,631.4925 0.0195,631.5825 C0.0225,631.611 0.03,631.641 0.036,631.671 C0.0465,631.7295 0.057,631.7865 0.072,631.8435 C0.081,631.878 0.093,631.911 0.1035,631.944 C0.12,631.9935 0.1365,632.0445 0.1575,632.0955 C0.171,632.1285 0.1875,632.1615 0.2025,632.1945 C0.225,632.241 0.2475,632.286 0.273,632.3325 C0.2925,632.364 0.312,632.3955 0.333,632.427 C0.36,632.4705 0.3885,632.511 0.4185,632.5515 C0.441,632.583 0.465,632.613 0.4905,632.6415 C0.522,632.679 0.5565,632.718 0.5925,632.7525 C0.6195,632.781 0.6465,632.808 0.675,632.8335 C0.7125,632.868 0.7515,632.901 0.792,632.9325 C0.822,632.9565 0.852,632.9805 0.885,633.003 C0.897,633.0105 0.9075,633.021 0.9195,633.0285 L22.8555,647.6535 C23.202,647.8845 23.601,648 24,648 C24.399,648 24.798,647.8845 25.1445,647.6535 L47.082,633.0285 C47.094,633.021 47.1045,633.0105 47.1165,633.003 C47.148,632.9805 47.178,632.9565 47.2095,632.9325 C47.2485,632.901 47.2875,632.868 47.3265,632.8335 C47.355,632.808 47.3805,632.781 47.4075,632.7525 C47.4435,632.718 47.478,632.679 47.511,632.6415 C47.535,632.613 47.559,632.583 47.5815,632.5515 C47.613,632.511 47.6415,632.4705 47.6685,632.427 C47.688,632.3955 47.709,632.364 47.727,632.3325 C47.754,632.286 47.7765,632.241 47.7975,632.1945 C47.814,632.1615 47.8305,632.1285 47.844,632.0955 C47.8635,632.0445 47.88,631.9935 47.8965,631.944 C47.907,631.911 47.9205,631.878 47.9295,631.8435 C47.9445,631.7865 47.955,631.7295 47.9655,631.671 C47.97,631.641 47.9775,631.611 47.982,631.5825 C47.994,631.4925 48,631.4025 48,631.3125 L48,616.6875 C48,616.596 47.994,616.506 47.982,616.419 L47.982,616.419 L47.982,616.419 Z M26.0625,605.9175 L42.2235,616.6905 L35.0055,621.519 L26.0625,615.537 L26.0625,605.9175 L26.0625,605.9175 Z M21.9375,605.9175 L21.9375,615.537 L12.996,621.519 L5.7765,616.6905 L21.9375,605.9175 L21.9375,605.9175 Z M4.125,620.5485 L9.2865,624 L4.125,627.4515 L4.125,620.5485 L4.125,620.5485 Z M21.9375,642.0825 L5.7765,631.3095 L12.996,626.4825 L21.9375,632.463 L21.9375,642.0825 L21.9375,642.0825 Z M24,628.8795 L16.7055,624 L24,619.1205 L31.296,624 L24,628.8795 L24,628.8795 Z M26.0625,642.0825 L26.0625,632.463 L35.0055,626.4825 L42.2235,631.3095 L26.0625,642.0825 L26.0625,642.0825 Z M43.875,627.4515 L38.715,624 L43.875,620.5485 L43.875,627.4515 L43.875,627.4515 Z" id="Codepen" sketch:type="MSShapeGroup"></path>
            </g>
        </g>
    </g>
</svg>