<svg xmlns="http://www.w3.org/2000/svg" viewBox="0 0 54 654"><defs><style>.a,.b{fill:#fff;}.b{fill-rule:evenodd;}.c{fill:none;}</style></defs><title>sprite-social</title><path class="a" d="M51,104.74a19.19,19.19,0,0,1-5.65,1.58,10.07,10.07,0,0,0,4.33-5.58,19.33,19.33,0,0,1-6.26,2.45A9.68,9.68,0,0,0,36.23,100a10,10,0,0,0-9.84,10.1,10.26,10.26,0,0,0,.25,2.3,27.72,27.72,0,0,1-20.3-10.56A10.3,10.3,0,0,0,5,106.93a10.16,10.16,0,0,0,4.38,8.4,9.69,9.69,0,0,1-4.46-1.26v.12a10,10,0,0,0,7.9,9.91,9.69,9.69,0,0,1-2.59.35,9.46,9.46,0,0,1-1.86-.18,9.89,9.89,0,0,0,9.2,7,19.45,19.45,0,0,1-12.23,4.33A20.31,20.31,0,0,1,3,135.47,27.43,27.43,0,0,0,18.1,140c18.11,0,28-15.38,28-28.73,0-.44,0-.88,0-1.31A20.34,20.34,0,0,0,51,104.74"/><path class="a" d="M36.74,338.34a10.69,10.69,0,0,1-3.79.83c-3.76.1-4.49-2.7-4.52-4.73V319.5h9.43v-7.27h-9.4V300H21.58a.38.38,0,0,0-.34.36c-.4,3.74-2.11,10.31-9.24,12.93v6.21h4.75v15.68c0,5.37,3.88,13,14.12,12.82,3.45-.06,7.28-1.54,8.13-2.82l-2.26-6.84"/><path class="a" d="M5,537.71A6.29,6.29,0,1,1,11.29,544,6.28,6.28,0,0,1,5,537.71ZM49,544H40.62A35.66,35.66,0,0,0,5,508.38V500A44.05,44.05,0,0,1,49,544Zm-14.67,0H26A21,21,0,0,0,5,523.05v-8.38A29.37,29.37,0,0,1,34.33,544Z"/><path class="a" d="M49,240H39.28V225.94c0-3.68-1.53-6.19-4.87-6.19a4.9,4.9,0,0,0-4.64,3.32,6.21,6.21,0,0,0-.21,2.23V240H19.92s.13-24.91,0-27.17h9.64v4.26c.57-1.86,3.64-4.52,8.56-4.52,6.09,0,10.88,3.9,10.88,12.32V240ZM10.18,209.43h-.06C7,209.43,5,207.35,5,204.72S7.07,200,10.24,200s5.11,2,5.17,4.71-2,4.72-5.23,4.72Zm-4.07,3.4h8.58V240H6.11V212.83Z"/><path class="a" d="M27,400a24.11,24.11,0,0,0-7.59,47c1.2.22,1.64-.52,1.64-1.16s0-2.09,0-4.1c-6.68,1.46-8.09-3.23-8.09-3.23-1.09-2.78-2.66-3.52-2.66-3.52-2.18-1.5.17-1.47.17-1.47A5,5,0,0,1,14.11,436c2.14,3.69,5.62,2.62,7,2a5.13,5.13,0,0,1,1.52-3.22c-5.33-.6-10.93-2.67-10.93-11.9a9.32,9.32,0,0,1,2.47-6.47,8.71,8.71,0,0,1,.23-6.38s2-.64,6.6,2.47a22.7,22.7,0,0,1,12,0c4.58-3.11,6.59-2.47,6.59-2.47a8.68,8.68,0,0,1,.24,6.38,9.32,9.32,0,0,1,2.47,6.47c0,9.25-5.61,11.29-11,11.89A5.75,5.75,0,0,1,33,439.19c0,3.22,0,5.82,0,6.61,0,.64.43,1.39,1.65,1.16A24.11,24.11,0,0,0,27,400"/><path class="a" d="M51,616.42s0-.06,0-.09,0-.12,0-.17l0-.1-.06-.15a1,1,0,0,0,0-.1l-.07-.14-.06-.1-.09-.12-.07-.09-.1-.11-.08-.08-.12-.1-.09-.07,0,0L28.14,600.35a2,2,0,0,0-2.28,0L3.92,615l0,0-.09.07a.52.52,0,0,0-.11.1l-.09.08-.1.11-.07.09-.09.12-.06.1-.07.14a1,1,0,0,0,0,.1l-.06.15,0,.1,0,.17a.29.29,0,0,0,0,.09,2.45,2.45,0,0,0,0,.27v14.62a2.45,2.45,0,0,0,0,.27.29.29,0,0,0,0,.09l0,.17,0,.1.06.16,0,.09.07.14.06.1.09.12.07.09.1.11.09.08a.52.52,0,0,0,.11.1l.09.07,0,0,21.94,14.62a2,2,0,0,0,2.28,0L50.08,633l0,0,.09-.07.12-.1.08-.08.1-.11.07-.09.09-.12.06-.1.07-.14,0-.09.06-.16,0-.1c0-.05,0-.11,0-.17s0-.06,0-.09a2.45,2.45,0,0,0,0-.27V616.69a2.45,2.45,0,0,0,0-.27Zm-21.92-10.5,16.16,10.77L38,621.52l-8.95-6v-9.62Zm-4.12,0v9.62l-8.94,6-7.22-4.83,16.16-10.77ZM7.12,620.55,12.29,624l-5.17,3.45v-6.9Zm17.82,21.53L8.78,631.31,16,626.48l8.94,6v9.62ZM27,628.88,19.71,624,27,619.12,34.3,624,27,628.88Zm2.06,13.2v-9.62l9-6,7.21,4.83L29.06,642.08Zm17.82-14.63L41.72,624l5.16-3.45v6.9Z"/><path class="b" d="M18.79,25.37a8,8,0,1,1,8,8,7.95,7.95,0,0,1-8-7.95m-4.3,0A12.26,12.26,0,1,0,26.75,13.15,12.25,12.25,0,0,0,14.49,25.37M36.63,12.66A2.87,2.87,0,1,0,39.5,9.8a2.87,2.87,0,0,0-2.87,2.86M17.1,44.77A13.46,13.46,0,0,1,12.67,44a7.84,7.84,0,0,1-4.54-4.52c-1.41-3.63-.94-20.89-.82-23.68S8,10.52,9.92,8.59C12.31,6.2,15.39,5,36.4,6c2.74.13,5.25.68,7.18,2.61C46,11,47.16,14.08,46.19,35a12.94,12.94,0,0,1-.82,4.43C43.21,45,38.24,45.74,17.1,44.77M16.91,1.7c-3.91.18-7.3,1.13-10,3.85S3.19,11.69,3,15.56C2.9,18,2.26,36.2,4.12,41a12.12,12.12,0,0,0,7,7,17.4,17.4,0,0,0,5.8,1.1c21.26,1,29.14.44,32.47-8.07a17.29,17.29,0,0,0,1.11-5.78c1-21.32-.16-25.95-3.87-29.65C43.68,2.62,40.23.62,16.91,1.7"/><rect class="c" width="54" height="654"/></svg>