<svg xmlns="http://www.w3.org/2000/svg" xmlns:xlink="http://www.w3.org/1999/xlink" viewBox="0 0 148.18 646.6"><defs><style>.cls-1{fill:none;}.cls-2,.cls-4{fill:#fff;}.cls-3{clip-path:url(#clip-path);}.cls-4,.cls-6{fill-rule:evenodd;}.cls-5{clip-path:url(#clip-path-2);}</style><clipPath id="clip-path"><rect class="cls-1" width="48" height="48"/></clipPath><clipPath id="clip-path-2"><rect class="cls-1" x="100.01" width="48" height="48"/></clipPath></defs><title>sprite-social</title><g id="Layer_2" data-name="Layer 2"><g id="Layer_1-2" data-name="Layer 1"><g id="Page-1"><g id="sprite-social"><g id="white"><path id="Twitter" class="cls-2" d="M48.18,103.33a19.23,19.23,0,0,1-5.65,1.59,10.08,10.08,0,0,0,4.33-5.58,19.4,19.4,0,0,1-6.26,2.45,9.71,9.71,0,0,0-7.19-3.19,10,10,0,0,0-9.84,10.1,10.3,10.3,0,0,0,.25,2.3,27.73,27.73,0,0,1-20.3-10.55,10.28,10.28,0,0,0-1.33,5.08,10.16,10.16,0,0,0,4.38,8.4,9.67,9.67,0,0,1-4.46-1.26v.12a10,10,0,0,0,7.9,9.9,9.39,9.39,0,0,1-2.59.36,9.57,9.57,0,0,1-1.85-.18,9.89,9.89,0,0,0,9.2,7A19.44,19.44,0,0,1,2.53,134.2a19.71,19.71,0,0,1-2.35-.14,27.42,27.42,0,0,0,15.1,4.53c18.12,0,28-15.38,28-28.73,0-.44,0-.88,0-1.31a20.21,20.21,0,0,0,4.91-5.23"/><path id="Tumblr" class="cls-2" d="M33.92,336.94a10.86,10.86,0,0,1-3.79.83c-3.76.1-4.49-2.7-4.52-4.73V318.09H35v-7.27h-9.4V298.6H18.76a.37.37,0,0,0-.34.36c-.4,3.74-2.12,10.31-9.24,12.94v6.2h4.75v15.68c0,5.37,3.88,13,14.11,12.82,3.45-.06,7.29-1.54,8.13-2.81l-2.26-6.84"/><path id="RSS" class="cls-2" d="M2.18,536.31a6.29,6.29,0,1,1,6.29,6.29A6.29,6.29,0,0,1,2.18,536.31Zm44,6.29H37.8A35.66,35.66,0,0,0,2.18,507V498.6A44.05,44.05,0,0,1,46.18,542.6Zm-14.67,0H23.13a21,21,0,0,0-21-21v-8.38A29.37,29.37,0,0,1,31.51,542.6Z"/><path id="LinkedIn" class="cls-2" d="M46.18,238.6H36.46V224.53c0-3.68-1.52-6.19-4.87-6.19a4.91,4.91,0,0,0-4.64,3.33,6.19,6.19,0,0,0-.21,2.22v14.7H17.1s.12-24.91,0-27.17h9.63v4.26c.57-1.86,3.65-4.53,8.56-4.53,6.1,0,10.88,3.91,10.88,12.33V238.6ZM7.36,208H7.3c-3.1,0-5.12-2.08-5.12-4.71s2.07-4.72,5.24-4.72,5.11,2,5.17,4.71-2,4.72-5.23,4.72Zm-4.07,3.4h8.58V238.6H3.29V211.42Z"/><path id="Github" class="cls-2" d="M24.18,398.6a24.11,24.11,0,0,0-7.58,47c1.2.22,1.64-.52,1.64-1.16s0-2.09,0-4.1c-6.68,1.46-8.09-3.23-8.09-3.23-1.09-2.78-2.66-3.52-2.66-3.52-2.18-1.5.16-1.47.16-1.47a5,5,0,0,1,3.68,2.48c2.14,3.68,5.62,2.62,7,2a5.15,5.15,0,0,1,1.52-3.22c-5.33-.61-10.93-2.67-10.93-11.91A9.33,9.33,0,0,1,11.34,415a8.69,8.69,0,0,1,.23-6.38s2-.65,6.6,2.47a22.65,22.65,0,0,1,12,0c4.58-3.12,6.59-2.47,6.59-2.47A8.68,8.68,0,0,1,37,415a9.32,9.32,0,0,1,2.47,6.47c0,9.26-5.61,11.29-11,11.89a5.76,5.76,0,0,1,1.63,4.46c0,3.22,0,5.82,0,6.61s.43,1.39,1.65,1.16a24.11,24.11,0,0,0-7.6-47"/><path id="Codepen" class="cls-2" d="M48.16,615l0-.09c0-.06,0-.12,0-.17l0-.1L48,614.5l0-.1-.07-.14-.06-.1-.09-.13-.07-.09-.1-.11-.08-.08-.12-.1-.09-.07,0,0L25.33,598.94a2.06,2.06,0,0,0-2.29,0L1.1,613.57l0,0-.09.07-.12.1-.08.08-.1.11L.6,614l-.09.13-.06.1-.07.14,0,.1-.05.15,0,.1c0,.06,0,.11,0,.17a.87.87,0,0,0,0,.09,2,2,0,0,0,0,.27v14.63a2,2,0,0,0,0,.27s0,.06,0,.09,0,.12,0,.17l0,.1.05.15,0,.1.07.14.06.09.09.12.07.09.1.11.08.08.12.1.09.07,0,0L23,646.25a2.06,2.06,0,0,0,2.29,0l21.94-14.62,0,0,.09-.07.12-.1.08-.08.1-.11.07-.09.09-.12.06-.09.07-.14,0-.1.05-.15,0-.1c0-.06,0-.11,0-.17l0-.09a2,2,0,0,0,0-.27V615.28a2,2,0,0,0,0-.27Zm-21.92-10.5L42.4,615.29l-7.22,4.83-8.94-6v-9.62Zm-4.12,0v9.62l-8.94,6L6,615.29l16.16-10.77ZM4.31,619.14l5.16,3.45L4.31,626v-6.9Zm17.81,21.53L6,629.91l7.22-4.83,8.94,6v9.62Zm2.06-13.2-7.29-4.88,7.29-4.88,7.3,4.88-7.3,4.88Zm2.06,13.2v-9.62l8.94-6,7.22,4.83L26.24,640.68ZM44.06,626,38.9,622.6l5.16-3.45V626Z"/><g class="cls-3"><path class="cls-4" d="M16,24a8,8,0,1,1,8,7.94A8,8,0,0,1,16,24m-4.3,0A12.26,12.26,0,1,0,23.93,11.74,12.25,12.25,0,0,0,11.67,24M33.82,11.25A2.87,2.87,0,1,0,36.68,8.4a2.86,2.86,0,0,0-2.87,2.86M14.28,43.36a13.23,13.23,0,0,1-4.43-.82A7.81,7.81,0,0,1,5.32,38c-1.42-3.63-.95-20.89-.82-23.68S5.17,9.11,7.1,7.18c2.39-2.38,5.47-3.55,26.48-2.6,2.74.12,5.25.68,7.18,2.6,2.39,2.38,3.57,5.49,2.61,26.42A13.14,13.14,0,0,1,42.55,38c-2.16,5.54-7.13,6.31-28.27,5.34M14.09.29c-3.91.18-7.29,1.13-10,3.85S.37,10.29.2,14.15C.09,16.56-.56,34.8,1.31,39.58a12.1,12.1,0,0,0,7,7,17.51,17.51,0,0,0,5.8,1.11c21.27,1,29.15.44,32.47-8.07a17.37,17.37,0,0,0,1.11-5.78c1-21.32-.16-25.94-3.86-29.64C40.86,1.22,37.41-.78,14.09.29"/></g></g><g id="black"><path id="Twitter-2" data-name="Twitter" d="M148.18,103.33a19.23,19.23,0,0,1-5.65,1.59,10.08,10.08,0,0,0,4.33-5.58,19.4,19.4,0,0,1-6.26,2.45,9.71,9.71,0,0,0-7.19-3.19,10,10,0,0,0-9.84,10.1,10.3,10.3,0,0,0,.25,2.3,27.73,27.73,0,0,1-20.3-10.55,10.28,10.28,0,0,0-1.33,5.08,10.16,10.16,0,0,0,4.38,8.4,9.67,9.67,0,0,1-4.46-1.26v.12a10,10,0,0,0,7.9,9.9,9.39,9.39,0,0,1-2.59.36,9.57,9.57,0,0,1-1.85-.18,9.89,9.89,0,0,0,9.2,7,19.44,19.44,0,0,1-12.23,4.33,19.71,19.71,0,0,1-2.35-.14,27.42,27.42,0,0,0,15.1,4.53c18.12,0,28-15.38,28-28.73,0-.44,0-.88,0-1.31a20.21,20.21,0,0,0,4.91-5.23"/><path id="Tumblr-2" data-name="Tumblr" d="M133.92,336.94a10.86,10.86,0,0,1-3.79.83c-3.76.1-4.49-2.7-4.52-4.73V318.09H135v-7.27h-9.4V298.6h-6.88a.37.37,0,0,0-.34.36c-.4,3.74-2.12,10.31-9.24,12.94v6.2h4.75v15.68c0,5.37,3.88,13,14.11,12.82,3.45-.06,7.29-1.54,8.13-2.81l-2.26-6.84"/><path id="RSS-2" data-name="RSS" d="M102.18,536.31a6.29,6.29,0,1,1,6.29,6.29A6.29,6.29,0,0,1,102.18,536.31Zm44,6.29H137.8A35.66,35.66,0,0,0,102.18,507V498.6A44.05,44.05,0,0,1,146.18,542.6Zm-14.67,0h-8.38a21,21,0,0,0-21-21v-8.38A29.37,29.37,0,0,1,131.51,542.6Z"/><path id="LinkedIn-2" data-name="LinkedIn" d="M146.18,238.6h-9.72V224.53c0-3.68-1.52-6.19-4.87-6.19a4.91,4.91,0,0,0-4.64,3.33,6.19,6.19,0,0,0-.21,2.22v14.7H117.1s.12-24.91,0-27.17h9.63v4.26c.57-1.86,3.65-4.53,8.56-4.53,6.1,0,10.88,3.91,10.88,12.33V238.6ZM107.36,208h-.06c-3.1,0-5.12-2.08-5.12-4.71s2.07-4.72,5.24-4.72,5.11,2,5.17,4.71-2,4.72-5.23,4.72Zm-4.07,3.4h8.58V238.6h-8.58V211.42Z"/><path id="Github-2" data-name="Github" d="M124.18,398.6a24.11,24.11,0,0,0-7.58,47c1.2.22,1.64-.52,1.64-1.16s0-2.09,0-4.1c-6.68,1.46-8.09-3.23-8.09-3.23-1.09-2.78-2.66-3.52-2.66-3.52-2.18-1.5.16-1.47.16-1.47a5,5,0,0,1,3.68,2.48c2.14,3.68,5.62,2.62,7,2a5.15,5.15,0,0,1,1.52-3.22c-5.33-.61-10.93-2.67-10.93-11.91a9.33,9.33,0,0,1,2.47-6.47,8.69,8.69,0,0,1,.23-6.38s2-.65,6.6,2.47a22.65,22.65,0,0,1,12,0c4.58-3.12,6.59-2.47,6.59-2.47A8.68,8.68,0,0,1,137,415a9.32,9.32,0,0,1,2.47,6.47c0,9.26-5.61,11.29-11,11.89a5.76,5.76,0,0,1,1.63,4.46c0,3.22,0,5.82,0,6.61s.43,1.39,1.65,1.16a24.11,24.11,0,0,0-7.6-47"/><path id="Codepen-2" data-name="Codepen" d="M148.16,615l0-.09c0-.06,0-.12,0-.17l0-.1-.05-.15,0-.1-.07-.14-.06-.1-.09-.13-.07-.09-.1-.11-.08-.08-.12-.1-.09-.07,0,0-21.94-14.62a2.06,2.06,0,0,0-2.29,0L101.1,613.57l0,0-.09.07-.12.1-.08.08-.1.11-.07.09-.09.13-.06.1-.07.14,0,.1-.05.15,0,.1c0,.06,0,.11,0,.17a.87.87,0,0,0,0,.09,2,2,0,0,0,0,.27v14.63a2,2,0,0,0,0,.27s0,.06,0,.09,0,.12,0,.17l0,.1.05.15,0,.1.07.14.06.09.09.12.07.09.1.11.08.08.12.1.09.07,0,0L123,646.25a2.06,2.06,0,0,0,2.29,0l21.94-14.62,0,0,.09-.07.12-.1.08-.08.1-.11.07-.09.09-.12.06-.09.07-.14,0-.1.05-.15,0-.1c0-.06,0-.11,0-.17l0-.09a2,2,0,0,0,0-.27V615.28a2,2,0,0,0,0-.27Zm-21.92-10.5,16.16,10.77-7.22,4.83-8.94-6v-9.62Zm-4.12,0v9.62l-8.94,6L106,615.29l16.16-10.77Zm-17.81,14.63,5.16,3.45L104.31,626v-6.9Zm17.81,21.53L106,629.91l7.22-4.83,8.94,6v9.62Zm2.06-13.2-7.29-4.88,7.29-4.88,7.3,4.88-7.3,4.88Zm2.06,13.2v-9.62l8.94-6,7.22,4.83-16.16,10.77ZM144.06,626l-5.16-3.45,5.16-3.45V626Z"/><g class="cls-5"><path class="cls-6" d="M116,24a8,8,0,1,1,8,7.94A8,8,0,0,1,116,24m-4.3,0a12.26,12.26,0,1,0,12.26-12.23A12.25,12.25,0,0,0,111.68,24m22.14-12.72a2.87,2.87,0,1,0,2.87-2.86,2.86,2.86,0,0,0-2.87,2.86M114.29,43.36a13.23,13.23,0,0,1-4.43-.82A7.81,7.81,0,0,1,105.33,38c-1.42-3.63-.95-20.89-.82-23.68s.68-5.23,2.61-7.16c2.39-2.38,5.47-3.55,26.48-2.6,2.74.12,5.25.68,7.18,2.6,2.39,2.38,3.57,5.49,2.61,26.42a13.14,13.14,0,0,1-.82,4.42c-2.16,5.54-7.13,6.31-28.27,5.34M114.1.29c-3.91.18-7.29,1.13-10,3.85s-3.69,6.14-3.86,10c-.11,2.41-.75,20.64,1.11,25.43a12.1,12.1,0,0,0,7,7,17.51,17.51,0,0,0,5.8,1.11c21.27,1,29.15.44,32.47-8.07a17.37,17.37,0,0,0,1.11-5.78c1-21.32-.16-25.94-3.86-29.64-2.94-2.93-6.4-4.93-29.72-3.85"/></g></g></g></g></g></g></svg>